<svg width="64" height="64" viewBox="0 0 64 64" fill="none" xmlns="http://www.w3.org/2000/svg">
<path d="M32.002 0.00205048C14.3229 0.00205048 0 14.6981 0 32.8102C0 47.3135 9.16857 59.6063 21.8754 63.9431C23.4815 64.2528 24.0615 63.2377 24.0615 62.3601C24.0615 61.5809 24.0435 59.5202 24.0315 56.7848C15.1249 58.7615 13.2488 52.3741 13.2488 52.3741C11.7907 48.593 9.68661 47.578 9.68661 47.578C6.79042 45.55 9.91662 45.5931 9.91662 45.5931C13.1248 45.8166 14.8129 48.9662 14.8129 48.9662C17.6671 53.9858 22.3014 52.5341 24.1355 51.6893C24.4155 49.5752 25.2496 48.1214 26.1576 47.3114C19.0532 46.4892 11.5827 43.6697 11.5827 31.098C11.5827 27.5076 12.8228 24.5836 14.8729 22.287C14.5189 21.4647 13.4348 18.1224 15.1549 13.6031C15.1549 13.6031 17.8331 12.7275 23.9555 16.968C26.5177 16.24 29.2378 15.8771 31.956 15.8586C34.6762 15.8771 37.3943 16.2421 39.9565 16.968C46.0429 12.7275 48.719 13.6031 48.719 13.6031C50.4372 18.1224 49.3531 21.4627 49.0411 22.287C51.0712 24.5836 52.3113 27.5096 52.3113 31.098C52.3113 43.6984 44.8308 46.4769 37.7184 47.2786C38.8304 48.2608 39.8725 50.2806 39.8725 53.3461C39.8725 57.7342 39.8325 61.2693 39.8325 62.3376C39.8325 63.1906 40.3925 64.2158 42.0406 63.8857C54.8414 59.594 64 47.2909 64 32.8082C64 14.696 49.6771 0 31.998 0L32.002 0.00205048Z" fill="#595151"/>
</svg>
