<svg width="64" height="64" viewBox="0 0 64 64" fill="none" xmlns="http://www.w3.org/2000/svg">
<path d="M8.2176 0H55.7862C60.3055 0 64 3.69579 64 8.21504V55.7837C64 60.3017 60.3055 63.9949 55.7862 63.9949H8.2176C3.69835 63.9949 0 60.3014 0 55.7837V8.21504C0 3.69579 3.69835 0 8.2176 0ZM46.6231 7.10763C45.0364 7.10763 43.7421 8.40704 43.7421 9.99296V16.8866C43.7421 18.4732 45.0364 19.7696 46.6231 19.7696H53.8558C55.44 19.7696 56.7371 18.4732 56.7371 16.8866V9.99296C56.7371 8.40704 55.44 7.10763 53.8558 7.10763H46.6231ZM56.7646 27.0626H51.1334C51.6674 28.8066 51.9569 30.6458 51.9569 32.5579C51.9569 43.1994 43.0468 51.8304 32.0602 51.8304C21.0763 51.8304 12.166 43.1994 12.166 32.5579C12.166 30.6458 12.4582 28.8066 12.9897 27.0626H7.11467V54.0988C7.11467 55.4989 8.25792 56.6379 9.65675 56.6379H54.2236C55.6237 56.6379 56.7646 55.4989 56.7646 54.0988V27.0626ZM32.0604 19.4061C24.9649 19.4061 19.2092 24.9801 19.2092 31.8622C19.2092 38.7373 24.9649 44.3155 32.0604 44.3155C39.1597 44.3155 44.9156 38.7373 44.9156 31.8622C44.9156 24.9798 39.1597 19.4061 32.0604 19.4061Z" fill="#595151"/>
</svg>
