<svg width="64" height="64" viewBox="0 0 64 64" fill="none" xmlns="http://www.w3.org/2000/svg">
<path d="M14.8975 20.519H2.04944C1.47922 20.519 1.01718 20.9813 1.01718 21.5513V62.8267C1.01718 63.3969 1.47922 63.859 2.04944 63.859H14.8975C15.4678 63.859 15.9298 63.3969 15.9298 62.8267V21.5513C15.9298 20.9813 15.4678 20.519 14.8975 20.519Z" fill="#595151"/>
<path d="M8.47814 0C3.80325 0 0 3.79912 0 8.46885C0 13.1406 3.80325 16.9412 8.47814 16.9412C13.1493 16.9412 16.9495 13.1404 16.9495 8.46885C16.9497 3.79912 13.1493 0 8.47814 0Z" fill="#595151"/>
<path d="M47.5776 19.4932C42.4174 19.4932 38.6028 21.7115 36.2891 24.2321V21.5513C36.2891 20.9813 35.827 20.519 35.2568 20.519H22.9525C22.3823 20.519 21.9202 20.9813 21.9202 21.5513V62.8267C21.9202 63.397 22.3823 63.859 22.9525 63.859H35.7725C36.3427 63.859 36.8048 63.397 36.8048 62.8267V42.405C36.8048 35.5233 38.674 32.8423 43.4711 32.8423C48.6956 32.8423 49.1107 37.1402 49.1107 42.759V62.8269C49.1107 63.3972 49.5728 63.8592 50.143 63.8592H62.9678C63.538 63.8592 64 63.3972 64 62.8269V40.1866C64 29.9539 62.0488 19.4932 47.5776 19.4932Z" fill="#595151"/>
</svg>
